<svg xmlns="http://www.w3.org/2000/svg"
    width="580"
    height="1149">
<path d="M 0,1050
500,1049
500,1048
500,1047
500,1046
500,1045
500,1044
500,1043
500,1042
500,1041
500,1040
500,1039
500,1038
500,1037
500,1036
500,1035
500,1034
500,1033
500,1032
500,1031
500,1030
500,1029
500,1028
500,1027
500,1026
500,1025
500,1024
500,1023
500,1022
500,1021
500,1020
500,1019
500,1018
500,1017
500,1016
500,1015
500,1014
500,1013
500,1012
500,1011
500,1010
500,1009
500,1008
500,1007
500,1006
500,1005
500,1004
500,1003
500,1002
500,1001
500,1000
500,999
500,998
500,997
500,996
500,995
500,994
500,993
500,992
500,991
500,990
500,989
500,988
500,987
500,986
500,985
500,984
500,983
500,982
500,981
500,980
500,979
500,978
500,977
500,976
500,975
500,974
500,973
500,972
500,971
500,970
500,969
500,968
500,967
500,966
500,965
500,964
500,963
500,962
500,961
500,960
500,959
500,958
500,957
500,956
500,955
500,954
500,953
500,952
500,951
500,950
500,949
500,948
500,947
500,946
500,945
500,944
500,943
500,942
500,941
500,940
500,939
500,938
500,937
500,936
500,935
500,934
500,933
500,932
500,931
500,930
500,929
500,928
500,927
500,926
500,925
500,924
500,923
500,922
500,921
500,920
500,919
500,918
500,917
500,916
500,915
500,914
500,913
500,912
500,911
500,910
500,909
500,908
500,907
500,906
500,905
500,904
500,903
500,902
500,901
500,900
500,899
500,898
500,897
500,896
500,895
500,894
500,893
500,892
500,891
500,890
500,889
500,888
500,887
500,886
500,885
500,884
500,883
500,882
500,881
500,880
500,879
500,878
500,877
500,876
500,875
500,874
500,873
500,872
500,871
500,870
500,869
500,868
500,867
500,866
500,865
500,864
500,863
500,862
500,861
500,860
500,859
500,858
500,857
500,856
500,855
500,854
500,853
500,852
500,851
500,850
500,849
500,848
500,847
500,846
500,845
500,844
500,843
500,842
500,841
500,840
500,839
500,838
500,837
500,836
500,835
500,834
500,833
500,832
500,831
500,830
500,829
500,828
500,827
500,826
500,825
500,824
500,823
500,822
500,821
500,820
500,819
500,818
500,817
500,816
500,815
500,814
500,813
500,812
500,811
500,810
500,809
500,808
500,807
500,806
500,805
500,804
500,803
500,802
500,801
500,800
500,799
500,798
500,797
500,796
500,795
500,794
500,793
500,792
500,791
500,790
500,789
500,788
500,787
500,786
500,785
500,784
500,783
500,782
500,781
500,780
500,779
500,778
500,777
500,776
500,775
500,774
500,773
500,772
500,771
500,770
500,769
500,768
500,767
500,766
500,765
500,764
500,763
500,762
500,761
500,760
500,759
500,758
500,757
500,756
500,755
500,754
500,753
500,752
500,751
500,750
500,749
500,748
500,747
500,746
500,745
500,744
500,743
500,742
500,741
500,740
500,739
500,738
500,737
500,736
500,735
500,734
500,733
500,732
500,731
500,730
500,729
500,728
500,727
500,726
500,725
500,724
500,723
500,722
500,721
500,720
500,719
500,718
500,717
500,716
500,715
500,714
500,713
500,712
500,711
500,710
500,709
500,708
500,707
500,706
500,705
500,704
500,703
500,702
500,701
500,700
500,699
500,698
500,697
500,696
500,695
500,694
500,693
500,692
500,691
500,690
500,689
500,688
500,687
500,686
500,685
500,684
500,683
500,682
500,681
500,680
500,679
500,678
500,677
500,676
500,675
500,674
500,673
500,672
500,671
500,670
500,669
500,668
500,667
500,666
500,665
500,664
500,663
500,662
500,661
500,660
500,659
500,658
500,657
500,656
500,655
500,654
500,653
500,652
500,651
500,650
500,649
500,648
500,647
500,646
500,645
500,644
500,643
500,642
500,641
500,640
500,639
500,638
500,637
500,636
500,635
500,634
500,633
500,632
500,631
500,630
500,629
500,628
500,627
500,626
500,625
500,624
500,623
500,622
500,621
500,620
500,619
500,618
500,617
500,616
500,615
500,614
500,613
500,612
500,611
500,610
500,609
500,608
500,607
500,606
500,605
500,604
500,603
500,602
500,601
500,600
500,599
500,598
500,597
500,596
500,595
500,594
500,593
500,592
500,591
500,590
500,589
500,588
500,587
500,586
500,585
500,584
500,583
500,582
500,581
500,580
500,579
500,578
500,577
500,576
500,575
500,574
500,573
500,572
500,571
500,570
500,569
500,568
500,567
500,566
500,565
500,564
500,563
500,562
500,561
500,560
500,559
500,558
500,557
500,556
500,555
500,554
500,553
500,552
500,551
500,550
500,549
500,548
500,547
500,546
500,545
500,544
500,543
500,542
500,541
500,540
500,539
500,538
500,537
500,536
500,535
500,534
500,533
500,532
500,531
500,530
500,529
500,528
500,527
500,526
500,525
500,524
500,523
500,522
500,521
500,520
500,519
500,518
500,517
500,516
500,515
500,514
500,513
500,512
500,511
500,510
500,509
500,508
500,507
500,506
500,505
500,504
500,503
500,502
500,501
500,500
500,499
500,498
500,497
500,496
500,495
500,494
500,493
500,492
500,491
500,490
500,489
500,488
500,487
500,486
500,485
500,484
500,483
500,482
500,481
500,480
500,479
500,478
500,477
500,476
500,475
500,474
500,473
500,472
500,471
500,470
500,469
500,468
500,467
500,466
500,465
500,464
500,463
500,462
500,461
500,460
500,459
500,458
500,457
500,456
500,455
500,454
500,453
500,452
500,451
500,450
500,449
500,448
500,447
500,446
500,445
500,444
500,443
500,442
500,441
500,440
500,439
500,438
500,437
500,436
500,435
500,434
500,433
500,432
500,431
500,430
500,429
500,428
500,427
500,426
500,425
500,424
500,423
500,422
500,421
500,420
500,419
500,418
500,417
500,416
500,415
500,414
500,413
500,412
500,411
500,410
500,409
500,408
500,407
500,406
500,405
500,404
500,403
500,402
500,401
500,400
500,399
500,398
500,397
500,396
500,395
500,394
500,393
500,392
500,391
500,390
500,389
500,388
500,387
500,386
500,385
500,384
500,383
500,382
500,381
500,380
500,379
500,378
500,377
500,376
500,375
500,374
500,373
500,372
500,371
500,370
500,369
500,368
500,367
500,366
500,365
500,364
500,363
500,362
500,361
500,360
500,359
500,358
500,357
500,356
500,355
500,354
500,353
500,352
500,351
500,350
500,349
500,348
500,347
500,346
500,345
500,344
500,343
500,342
500,341
500,340
500,339
500,338
500,337
500,336
500,335
500,334
500,333
500,332
500,331
500,330
500,329
500,328
500,327
500,326
500,325
500,324
500,323
500,322
500,321
500,320
500,319
500,318
500,317
500,316
500,315
500,314
500,313
500,312
500,311
500,310
500,309
500,308
500,307
500,306
500,305
500,304
500,303
500,302
500,301
500,300
500,299
500,298
500,297
500,296
500,295
500,294
500,293
500,292
500,291
500,290
500,289
500,288
500,287
500,286
500,285
500,284
500,283
500,282
500,281
500,280
500,279
500,278
500,277
500,276
500,275
500,274
500,273
500,272
500,271
500,270
500,269
500,268
500,267
500,266
500,265
500,264
500,263
500,262
500,261
500,260
500,259
500,258
500,257
500,256
500,255
500,254
500,253
500,252
500,251
500,250
500,249
500,248
500,247
500,246
500,245
500,244
500,243
500,242
500,241
500,240
500,239
500,238
500,237
500,236
500,235
500,234
500,233
500,232
500,231
500,230
500,229
500,228
500,227
500,226
500,225
500,224
500,223
500,222
500,221
500,220
500,219
500,218
500,217
500,216
500,215
500,214
500,213
500,212
500,211
500,210
500,209
500,208
500,207
500,206
500,205
500,204
500,203
500,202
500,201
500,200
500,199
500,198
500,197
500,196
500,195
500,194
500,193
500,192
500,191
500,190
500,189
500,188
500,187
500,186
500,185
500,184
500,183
500,182
500,181
500,180
500,179
500,178
500,177
500,176
500,175
500,174
500,173
500,172
500,171
500,170
500,169
500,168
500,167
500,166
500,165
500,164
500,163
500,162
500,161
500,160
500,159
500,158
500,157
500,156
500,155
500,154
500,153
500,152
500,151
500,150
500,149
500,148
500,147
500,146
500,145
500,144
500,143
500,142
500,141
500,140
500,139
500,138
500,137
500,136
500,135
500,134
500,133
500,132
500,131
500,130
500,129
500,128
500,127
500,126
500,125
500,124
500,123
500,122
500,121
500,120
500,119
500,118
500,117
500,116
500,115
500,114
500,113
500,112
500,111
500,110
500,109
500,108
500,107
500,106
500,105
500,104
500,103
500,102
500,101
500,100
500,99
500,98
500,97
500,96
500,95
500,94
500,93
500,92
500,91
500,90
500,89
500,88
500,87
500,86
500,85
500,84
500,83
500,82
500,81
500,80
500,79
500,78
500,77
500,76
500,75
500,74
500,73
500,72
500,71
500,70
500,69
500,68
500,67
500,66
500,65
500,64
500,63
500,62
500,61
500,60
500,59
500,58
500,57
500,56
500,55
500,54
500,53
500,52
500,51
500,50
530,50.0
530,51.0
530,52.0
530,53.0
530,54.0
530,55.0
530,56.0
530,57.0
530,58.0
530,59.0
530,60.0
530,61.0
530,62.0
530,63.0
530,64.0
530,65.0
530,66.0
530,67.0
530,68.0
530,69.0
530,70.0
530,71.0
530,72.0
530,73.0
530,74.0
529,75.0
529,76.0
529,77.0
529,78.0
529,79.0
529,80.0
529,81.0
529,82.0
529,83.0
529,84.0
529,85.0
529,86.0
529,87.0
529,88.0
529,89.0
529,90.0
529,91.0
529,92.0
529,93.0
529,94.0
529,95.0
529,96.0
529,97.0
529,98.0
529,99.0
529,100.0
529,101.0
529,102.0
529,103.0
529,104.0
529,105.0
529,106.0
529,107.0
529,108.0
529,109.0
529,110.0
529,111.0
529,112.0
529,113.0
529,114.0
529,115.0
529,116.0
529,117.0
529,118.0
529,119.0
529,120.0
529,121.0
529,122.0
529,123.0
529,124.0
528,125.0
528,126.0
528,127.0
528,128.0
528,129.0
528,130.0
528,131.0
528,132.0
528,133.0
528,134.0
528,135.0
528,136.0
528,137.0
528,138.0
528,139.0
528,140.0
528,141.0
528,142.0
528,143.0
528,144.0
528,145.0
528,146.0
528,147.0
528,148.0
528,149.0
528,150.0
528,151.0
528,152.0
528,153.0
528,154.0
528,155.0
528,156.0
528,157.0
528,158.0
528,159.0
528,160.0
528,161.0
528,162.0
528,163.0
528,164.0
528,165.0
528,166.0
528,167.0
528,168.0
528,169.0
528,170.0
528,171.0
528,172.0
528,173.0
528,174.0
527,175.0
527,176.0
527,177.0
527,178.0
527,179.0
527,180.0
527,181.0
527,182.0
527,183.0
527,184.0
527,185.0
527,186.0
527,187.0
527,188.0
527,189.0
527,190.0
527,191.0
527,192.0
527,193.0
527,194.0
527,195.0
527,196.0
527,197.0
527,198.0
527,199.0
527,200.0
527,201.0
527,202.0
527,203.0
527,204.0
527,205.0
527,206.0
527,207.0
527,208.0
527,209.0
527,210.0
527,211.0
527,212.0
527,213.0
527,214.0
527,215.0
527,216.0
527,217.0
527,218.0
527,219.0
527,220.0
527,221.0
527,222.0
527,223.0
527,224.0
526,225.0
526,226.0
526,227.0
526,228.0
526,229.0
526,230.0
526,231.0
526,232.0
526,233.0
526,234.0
526,235.0
526,236.0
526,237.0
526,238.0
526,239.0
526,240.0
526,241.0
526,242.0
526,243.0
526,244.0
526,245.0
526,246.0
526,247.0
526,248.0
526,249.0
526,250.0
526,251.0
526,252.0
526,253.0
526,254.0
526,255.0
526,256.0
526,257.0
526,258.0
526,259.0
526,260.0
526,261.0
526,262.0
526,263.0
526,264.0
526,265.0
526,266.0
526,267.0
526,268.0
526,269.0
526,270.0
526,271.0
526,272.0
526,273.0
526,274.0
525,275.0
525,276.0
525,277.0
525,278.0
525,279.0
525,280.0
525,281.0
525,282.0
525,283.0
525,284.0
525,285.0
525,286.0
525,287.0
525,288.0
525,289.0
525,290.0
525,291.0
525,292.0
525,293.0
525,294.0
525,295.0
525,296.0
525,297.0
525,298.0
525,299.0
525,300.0
525,301.0
525,302.0
525,303.0
525,304.0
525,305.0
525,306.0
525,307.0
525,308.0
525,309.0
525,310.0
525,311.0
525,312.0
525,313.0
525,314.0
525,315.0
525,316.0
525,317.0
525,318.0
525,319.0
525,320.0
525,321.0
525,322.0
525,323.0
525,324.0
524,325.0
524,326.0
524,327.0
524,328.0
524,329.0
524,330.0
524,331.0
524,332.0
524,333.0
524,334.0
524,335.0
524,336.0
524,337.0
524,338.0
524,339.0
524,340.0
524,341.0
524,342.0
524,343.0
524,344.0
524,345.0
524,346.0
524,347.0
524,348.0
524,349.0
524,350.0
524,351.0
524,352.0
524,353.0
524,354.0
524,355.0
524,356.0
524,357.0
524,358.0
524,359.0
524,360.0
524,361.0
524,362.0
524,363.0
524,364.0
524,365.0
524,366.0
524,367.0
524,368.0
524,369.0
524,370.0
524,371.0
524,372.0
524,373.0
524,374.0
523,375.0
523,376.0
523,377.0
523,378.0
523,379.0
523,380.0
523,381.0
523,382.0
523,383.0
523,384.0
523,385.0
523,386.0
523,387.0
523,388.0
523,389.0
523,390.0
523,391.0
523,392.0
523,393.0
523,394.0
523,395.0
523,396.0
523,397.0
523,398.0
523,399.0
523,400.0
523,401.0
523,402.0
523,403.0
523,404.0
523,405.0
523,406.0
523,407.0
523,408.0
523,409.0
523,410.0
523,411.0
523,412.0
523,413.0
523,414.0
523,415.0
523,416.0
523,417.0
523,418.0
523,419.0
523,420.0
523,421.0
523,422.0
523,423.0
523,424.0
522,425.0
522,426.0
522,427.0
522,428.0
522,429.0
522,430.0
522,431.0
522,432.0
522,433.0
522,434.0
522,435.0
522,436.0
522,437.0
522,438.0
522,439.0
522,440.0
522,441.0
522,442.0
522,443.0
522,444.0
522,445.0
522,446.0
522,447.0
522,448.0
522,449.0
522,450.0
522,451.0
522,452.0
522,453.0
522,454.0
522,455.0
522,456.0
522,457.0
522,458.0
522,459.0
522,460.0
522,461.0
522,462.0
522,463.0
522,464.0
522,465.0
522,466.0
522,467.0
522,468.0
522,469.0
522,470.0
522,471.0
522,472.0
522,473.0
522,474.0
521,475.0
521,476.0
521,477.0
521,478.0
521,479.0
521,480.0
521,481.0
521,482.0
521,483.0
521,484.0
521,485.0
521,486.0
521,487.0
521,488.0
521,489.0
521,490.0
521,491.0
521,492.0
521,493.0
521,494.0
521,495.0
521,496.0
521,497.0
521,498.0
521,499.0
521,500.0
521,501.0
521,502.0
521,503.0
521,504.0
521,505.0
521,506.0
521,507.0
521,508.0
521,509.0
521,510.0
521,511.0
521,512.0
521,513.0
521,514.0
521,515.0
521,516.0
521,517.0
521,518.0
521,519.0
521,520.0
521,521.0
521,522.0
521,523.0
521,524.0
520,525.0
520,526.0
520,527.0
520,528.0
520,529.0
520,530.0
520,531.0
520,532.0
520,533.0
520,534.0
520,535.0
520,536.0
520,537.0
520,538.0
520,539.0
520,540.0
520,541.0
520,542.0
520,543.0
520,544.0
520,545.0
520,546.0
520,547.0
520,548.0
520,549.0
520,550.0
520,551.0
520,552.0
520,553.0
520,554.0
520,555.0
520,556.0
520,557.0
520,558.0
520,559.0
520,560.0
520,561.0
520,562.0
520,563.0
520,564.0
520,565.0
520,566.0
520,567.0
520,568.0
520,569.0
520,570.0
520,571.0
520,572.0
520,573.0
520,574.0
519,575.0
519,576.0
519,577.0
519,578.0
519,579.0
519,580.0
519,581.0
519,582.0
519,583.0
519,584.0
519,585.0
519,586.0
519,587.0
519,588.0
519,589.0
519,590.0
519,591.0
519,592.0
519,593.0
519,594.0
519,595.0
519,596.0
519,597.0
519,598.0
519,599.0
519,600.0
519,601.0
519,602.0
519,603.0
519,604.0
519,605.0
519,606.0
519,607.0
519,608.0
519,609.0
519,610.0
519,611.0
519,612.0
519,613.0
519,614.0
519,615.0
519,616.0
519,617.0
519,618.0
519,619.0
519,620.0
519,621.0
519,622.0
519,623.0
519,624.0
518,625.0
518,626.0
518,627.0
518,628.0
518,629.0
518,630.0
518,631.0
518,632.0
518,633.0
518,634.0
518,635.0
518,636.0
518,637.0
518,638.0
518,639.0
518,640.0
518,641.0
518,642.0
518,643.0
518,644.0
518,645.0
518,646.0
518,647.0
518,648.0
518,649.0
518,650.0
518,651.0
518,652.0
518,653.0
518,654.0
518,655.0
518,656.0
518,657.0
518,658.0
518,659.0
518,660.0
518,661.0
518,662.0
518,663.0
518,664.0
518,665.0
518,666.0
518,667.0
518,668.0
518,669.0
518,670.0
518,671.0
518,672.0
518,673.0
518,674.0
517,675.0
517,676.0
517,677.0
517,678.0
517,679.0
517,680.0
517,681.0
517,682.0
517,683.0
517,684.0
517,685.0
517,686.0
517,687.0
517,688.0
517,689.0
517,690.0
517,691.0
517,692.0
517,693.0
517,694.0
517,695.0
517,696.0
517,697.0
517,698.0
517,699.0
517,700.0
517,701.0
517,702.0
517,703.0
517,704.0
517,705.0
517,706.0
517,707.0
517,708.0
517,709.0
517,710.0
517,711.0
517,712.0
517,713.0
517,714.0
517,715.0
517,716.0
517,717.0
517,718.0
517,719.0
517,720.0
517,721.0
517,722.0
517,723.0
517,724.0
516,725.0
516,726.0
516,727.0
516,728.0
516,729.0
516,730.0
516,731.0
516,732.0
516,733.0
516,734.0
516,735.0
516,736.0
516,737.0
516,738.0
516,739.0
516,740.0
516,741.0
516,742.0
516,743.0
516,744.0
516,745.0
516,746.0
516,747.0
516,748.0
516,749.0
516,750.0
516,751.0
516,752.0
516,753.0
516,754.0
516,755.0
516,756.0
516,757.0
516,758.0
516,759.0
516,760.0
516,761.0
516,762.0
516,763.0
516,764.0
516,765.0
516,766.0
516,767.0
516,768.0
516,769.0
516,770.0
516,771.0
516,772.0
516,773.0
516,774.0
515,775.0
515,776.0
515,777.0
515,778.0
515,779.0
515,780.0
515,781.0
515,782.0
515,783.0
515,784.0
515,785.0
515,786.0
515,787.0
515,788.0
515,789.0
515,790.0
515,791.0
515,792.0
515,793.0
515,794.0
515,795.0
515,796.0
515,797.0
515,798.0
515,799.0
515,800.0
515,801.0
515,802.0
515,803.0
515,804.0
515,805.0
515,806.0
515,807.0
515,808.0
515,809.0
515,810.0
515,811.0
515,812.0
515,813.0
515,814.0
515,815.0
515,816.0
515,817.0
515,818.0
515,819.0
515,820.0
515,821.0
515,822.0
515,823.0
515,824.0
514,825.0
514,826.0
514,827.0
514,828.0
514,829.0
514,830.0
514,831.0
514,832.0
514,833.0
514,834.0
514,835.0
514,836.0
514,837.0
514,838.0
514,839.0
514,840.0
514,841.0
514,842.0
514,843.0
514,844.0
514,845.0
514,846.0
514,847.0
514,848.0
514,849.0
514,850.0
514,851.0
514,852.0
514,853.0
514,854.0
514,855.0
514,856.0
514,857.0
514,858.0
514,859.0
514,860.0
514,861.0
514,862.0
514,863.0
514,864.0
514,865.0
514,866.0
514,867.0
514,868.0
514,869.0
514,870.0
514,871.0
514,872.0
514,873.0
514,874.0
513,875.0
513,876.0
513,877.0
513,878.0
513,879.0
513,880.0
513,881.0
513,882.0
513,883.0
513,884.0
513,885.0
513,886.0
513,887.0
513,888.0
513,889.0
513,890.0
513,891.0
513,892.0
513,893.0
513,894.0
513,895.0
513,896.0
513,897.0
513,898.0
513,899.0
513,900.0
513,901.0
513,902.0
513,903.0
513,904.0
513,905.0
513,906.0
513,907.0
513,908.0
513,909.0
513,910.0
513,911.0
513,912.0
513,913.0
513,914.0
513,915.0
513,916.0
513,917.0
513,918.0
513,919.0
513,920.0
513,921.0
513,922.0
513,923.0
513,924.0
512,925.0
512,926.0
512,927.0
512,928.0
512,929.0
512,930.0
512,931.0
512,932.0
512,933.0
512,934.0
512,935.0
512,936.0
512,937.0
512,938.0
512,939.0
512,940.0
512,941.0
512,942.0
512,943.0
512,944.0
512,945.0
512,946.0
512,947.0
512,948.0
512,949.0
512,950.0
512,951.0
512,952.0
512,953.0
512,954.0
512,955.0
512,956.0
512,957.0
512,958.0
512,959.0
512,960.0
512,961.0
512,962.0
512,963.0
512,964.0
512,965.0
512,966.0
512,967.0
512,968.0
512,969.0
512,970.0
512,971.0
512,972.0
512,973.0
512,974.0
511,975.0
511,976.0
511,977.0
511,978.0
511,979.0
511,980.0
511,981.0
511,982.0
511,983.0
511,984.0
511,985.0
511,986.0
511,987.0
511,988.0
511,989.0
511,990.0
511,991.0
511,992.0
511,993.0
511,994.0
511,995.0
511,996.0
511,997.0
511,998.0
511,999.0
511,1000.0
511,1001.0
511,1002.0
511,1003.0
511,1004.0
511,1005.0
511,1006.0
511,1007.0
511,1008.0
511,1009.0
511,1010.0
511,1011.0
511,1012.0
511,1013.0
511,1014.0
511,1015.0
511,1016.0
511,1017.0
511,1018.0
511,1019.0
511,1020.0
511,1021.0
511,1022.0
511,1023.0
511,1024.0
510,1025.0
510,1026.0
510,1027.0
510,1028.0
510,1029.0
510,1030.0
510,1031.0
510,1032.0
510,1033.0
510,1034.0
510,1035.0
510,1036.0
510,1037.0
510,1038.0
510,1039.0
510,1040.0
510,1041.0
510,1042.0
510,1043.0
510,1044.0
510,1045.0
510,1046.0
510,1047.0
510,1048.0
500,1059.0
0,1060.0
 z"/>
</svg>
